<svg width="24" height="24" viewBox="0 0 24 24" fill="none" xmlns="http://www.w3.org/2000/svg">
  <path id="Union" d="M22.3071 10.0509C22.2862 9.94534 22.2428 9.84546 22.1799 9.7581C22.1169 9.67075 22.0359 9.59796 21.9424 9.5447L19.1458 7.95095L19.1346 4.79907C19.1342 4.69053 19.1103 4.58334 19.0645 4.48493C19.0187 4.38652 18.9521 4.29922 18.8692 4.22907C17.8548 3.37098 16.6866 2.71339 15.4267 2.29126C15.3275 2.25768 15.2224 2.24525 15.1181 2.25478C15.0138 2.26431 14.9126 2.29558 14.8211 2.34658L12.0002 3.92345L9.17643 2.34376C9.08488 2.29248 8.9836 2.26097 8.87911 2.25128C8.77463 2.24159 8.66928 2.25394 8.56987 2.28751C7.31077 2.71235 6.14384 3.37249 5.13112 4.23283C5.0484 4.30287 4.98185 4.39002 4.93604 4.48826C4.89024 4.5865 4.86628 4.6935 4.8658 4.80189L4.85174 7.95657L2.05518 9.55032C1.96162 9.60359 1.88062 9.67637 1.81769 9.76373C1.75476 9.85108 1.71138 9.95096 1.69049 10.0566C1.43455 11.3427 1.43455 12.6667 1.69049 13.9528C1.71138 14.0584 1.75476 14.1583 1.81769 14.2457C1.88062 14.333 1.96162 14.4058 2.05518 14.4591L4.85174 16.0528L4.86299 19.2056C4.86333 19.3142 4.88723 19.4214 4.93304 19.5198C4.97884 19.6182 5.04547 19.7055 5.1283 19.7756C6.14275 20.6337 7.31095 21.2913 8.5708 21.7134C8.67002 21.747 8.77517 21.7595 8.87947 21.7499C8.98378 21.7404 9.08494 21.7091 9.17643 21.6581L12.0002 20.0766L14.8239 21.6563C14.9357 21.7185 15.0616 21.7508 15.1896 21.75C15.2715 21.75 15.3528 21.7367 15.4305 21.7106C16.6893 21.286 17.8561 20.6265 18.8692 19.7672C18.952 19.6972 19.0185 19.61 19.0643 19.5118C19.1101 19.4135 19.1341 19.3065 19.1346 19.1981L19.1486 16.0434L21.9452 14.4497C22.0387 14.3964 22.1197 14.3237 22.1827 14.2363C22.2456 14.1489 22.289 14.0491 22.3099 13.9434C22.5644 12.6583 22.5634 11.3357 22.3071 10.0509ZM12.0002 15.75C11.2585 15.75 10.5335 15.5301 9.91679 15.118C9.30011 14.706 8.81946 14.1203 8.53563 13.4351C8.2518 12.7499 8.17754 11.9959 8.32223 11.2684C8.46693 10.541 8.82408 9.87281 9.34853 9.34836C9.87297 8.82392 10.5412 8.46676 11.2686 8.32207C11.996 8.17737 12.75 8.25164 13.4352 8.53546C14.1205 8.81929 14.7061 9.29994 15.1182 9.91662C15.5302 10.5333 15.7502 11.2583 15.7502 12C15.7502 12.9946 15.3551 13.9484 14.6518 14.6517C13.9486 15.3549 12.9947 15.75 12.0002 15.75Z" fill="black"/>
</svg>
