<svg width="24" height="24" viewBox="0 0 24 24" fill="none" xmlns="http://www.w3.org/2000/svg">
  <path id="Union" d="M17.2959 12.7959L9.7959 20.2959C9.58455 20.5073 9.29791 20.626 8.99902 20.626C8.70014 20.626 8.41349 20.5073 8.20215 20.2959C7.9908 20.0846 7.87207 19.7979 7.87207 19.4991C7.87207 19.2002 7.9908 18.9135 8.20215 18.7022L14.9062 12L8.20402 5.29593C8.09937 5.19128 8.01636 5.06705 7.95973 4.93032C7.90309 4.79359 7.87394 4.64705 7.87394 4.49905C7.87394 4.35106 7.90309 4.20451 7.95973 4.06779C8.01636 3.93106 8.09937 3.80682 8.20402 3.70218C8.30867 3.59753 8.4329 3.51452 8.56963 3.45789C8.70636 3.40125 8.8529 3.3721 9.0009 3.3721C9.14889 3.3721 9.29543 3.40125 9.43216 3.45789C9.56889 3.51452 9.69312 3.59753 9.79777 3.70218L17.2978 11.2022C17.4025 11.3068 17.4856 11.4311 17.5422 11.5679C17.5988 11.7047 17.6279 11.8514 17.6277 11.9994C17.6275 12.1475 17.5981 12.2941 17.5412 12.4308C17.4843 12.5674 17.4009 12.6915 17.2959 12.7959Z" fill="black"/>
</svg>
